<?xml version="1.0" standalone="no"?>
<!DOCTYPE svg PUBLIC "-//W3C//DTD SVG 20010904//EN"
 "http://www.w3.org/TR/2001/REC-SVG-20010904/DTD/svg10.dtd">
<svg version="1.0" xmlns="http://www.w3.org/2000/svg"
 width="450.000000pt" height="450.000000pt" viewBox="0 0 450.000000 450.000000"
 preserveAspectRatio="xMidYMid meet">
<metadata>
Created by potrace 1.14, written by Peter Selinger 2001-2017
</metadata>
<g transform="translate(0.000000,450.000000) scale(0.100000,-0.100000)"
fill="#000000" stroke="none">
<path d="M2082 4460 c-16 -21 -31 -30 -51 -30 -40 0 -133 -55 -153 -91 -22
-37 -53 -38 -72 -1 -8 15 -15 21 -16 13 0 -19 -62 -87 -76 -83 -7 1 -15 -2
-19 -8 -3 -5 1 -10 9 -10 21 0 20 -13 -1 -32 -19 -17 -70 -21 -79 -7 -9 15
-34 10 -34 -6 0 -16 -9 -18 -47 -15 -13 1 -23 -3 -23 -8 0 -5 -11 -13 -25 -16
-14 -4 -32 -19 -42 -34 -9 -15 -25 -35 -35 -45 -17 -17 -19 -17 -25 -1 -5 15
-8 14 -15 -6 -6 -18 -5 -26 7 -32 22 -13 18 -37 -10 -60 -25 -19 -35 -58 -15
-58 6 0 10 5 10 12 0 6 3 8 6 5 4 -4 1 -14 -6 -22 -12 -15 -14 -15 -22 0 -12
20 -28 10 -28 -18 0 -13 -12 -30 -29 -41 -42 -28 -75 -94 -63 -126 6 -16 6
-33 -1 -48 -11 -24 7 -146 24 -168 5 -6 4 -25 -2 -44 -9 -24 -9 -45 0 -82 6
-27 11 -65 11 -83 0 -37 18 -120 50 -230 25 -88 25 -131 0 -173 -18 -28 -20
-49 -19 -165 1 -131 15 -247 18 -148 0 25 7 70 15 100 8 31 18 70 22 86 l6 30
10 -25 c5 -13 15 -31 23 -40 7 -8 15 -26 17 -40 2 -20 -4 -29 -33 -44 -35 -19
-36 -21 -31 -70 2 -28 10 -64 18 -80 17 -35 18 -46 4 -46 -6 0 -20 19 -30 43
-23 50 -25 34 -5 -48 8 -33 15 -79 15 -102 0 -35 6 -48 35 -77 18 -19 50 -40
69 -47 33 -12 35 -15 56 -108 12 -53 42 -146 66 -207 24 -62 46 -129 50 -151
8 -55 -15 -106 -65 -138 -22 -15 -62 -59 -90 -98 -118 -169 -228 -247 -346
-247 -29 0 -77 -5 -107 -11 -29 -6 -63 -13 -76 -15 -13 -3 -54 -33 -91 -68
-51 -48 -84 -69 -138 -90 -40 -15 -89 -40 -111 -56 -22 -16 -81 -54 -131 -85
-136 -84 -223 -193 -293 -369 -18 -45 -59 -134 -90 -199 -58 -119 -67 -147
-47 -147 6 0 21 -8 34 -18 20 -16 44 -19 154 -20 72 -1 188 -9 258 -17 70 -8
179 -15 242 -15 98 0 118 -3 147 -21 19 -11 34 -25 34 -30 0 -5 4 -9 9 -9 15
0 71 -53 71 -67 0 -7 -1 -13 -2 -13 -13 1 -102 32 -138 49 -25 11 -65 21 -90
21 -52 1 -204 23 -305 45 -38 8 -85 17 -104 20 -19 3 -38 8 -43 11 -5 3 -36 8
-70 10 -48 3 -59 1 -55 -10 4 -9 -7 -20 -27 -30 -39 -18 -89 -7 -117 25 -9 10
-19 15 -23 12 -3 -4 -6 -48 -6 -100 l0 -93 860 0 c758 0 860 2 860 15 0 8 7
15 15 15 8 0 15 -7 15 -15 0 -21 38 -19 43 3 4 16 5 16 6 0 1 -15 12 -18 73
-18 68 0 70 1 55 18 -10 10 -17 32 -17 49 0 17 -9 41 -19 54 -18 22 -18 26 -3
54 12 21 17 59 19 130 1 55 2 106 2 113 1 6 8 12 17 12 10 0 14 6 10 15 -3 9
0 15 9 15 9 0 15 -9 15 -23 0 -13 6 -37 14 -53 9 -17 16 -73 19 -135 4 -92 3
-108 -14 -130 -10 -13 -19 -33 -19 -45 0 -26 36 -65 54 -58 8 3 17 1 21 -5 8
-14 65 -15 65 -1 0 5 6 7 13 5 9 -4 11 11 10 57 -2 55 -1 59 8 33 6 -16 10
-47 9 -67 l-1 -37 636 -1 c420 0 635 3 635 10 0 5 -6 9 -12 7 -8 -1 -14 10
-16 25 -2 16 -7 28 -12 28 -12 0 -10 71 2 87 5 6 5 14 0 17 -15 9 21 242 41
263 19 22 22 49 7 58 -6 4 -8 15 -5 25 3 11 0 20 -11 24 -22 9 -37 -3 -31 -25
3 -12 -5 -29 -23 -46 -19 -19 -30 -42 -34 -73 -9 -66 -12 -79 -19 -86 -4 -4
-7 1 -7 12 0 26 -27 64 -46 64 -21 0 -17 -28 7 -40 19 -11 19 -13 5 -35 -9
-14 -16 -37 -16 -52 -1 -29 -19 -71 -32 -72 -5 -1 -17 -1 -28 -1 -13 0 -20 -7
-20 -19 0 -14 5 -18 20 -14 14 4 20 0 20 -11 0 -10 4 -14 10 -11 5 3 17 2 25
-3 14 -7 13 -10 -3 -25 -17 -16 -20 -16 -32 -2 -7 8 -19 15 -26 15 -8 0 -27
18 -42 39 -15 22 -39 45 -54 52 -16 6 -28 15 -28 19 0 12 -59 40 -83 40 -13 0
-17 5 -13 15 4 12 0 14 -19 9 -14 -3 -25 -2 -25 2 0 5 -20 9 -45 10 -25 0 -45
-2 -45 -6 0 -10 -33 -9 -47 3 -9 7 -13 5 -13 -7 0 -19 -64 -51 -81 -40 -13 7
8 34 27 34 7 0 16 16 20 38 3 20 14 48 22 62 9 14 25 41 36 60 10 19 23 38 28
41 6 4 11 19 11 35 1 16 14 41 30 57 15 15 27 32 27 37 0 6 11 10 24 10 19 0
25 -6 28 -27 4 -33 19 -35 33 -5 5 11 20 25 32 31 13 6 22 14 21 18 0 5 4 21
10 36 7 16 12 35 12 42 0 20 42 105 52 105 4 0 8 9 8 21 0 11 4 18 9 15 5 -3
7 -15 4 -26 -3 -11 0 -20 6 -20 6 0 11 7 11 15 0 9 6 12 17 8 13 -5 15 -2 10
12 -7 16 -3 17 38 12 27 -4 45 -3 45 3 0 17 26 11 54 -11 l27 -21 6 21 c10 39
24 10 17 -36 -5 -33 -3 -47 7 -54 8 -5 16 -3 21 4 5 8 8 4 8 -11 0 -12 13 -35
28 -51 l28 -30 13 30 c11 25 10 31 -4 45 -10 10 -14 25 -11 38 3 12 6 24 6 29
0 4 9 7 20 7 11 0 23 7 26 15 11 27 131 -12 167 -55 17 -20 20 -21 36 -6 22
20 65 15 69 -7 3 -14 -27 -89 -63 -160 -8 -16 -15 -34 -15 -40 0 -7 -9 -29
-20 -50 -11 -20 -20 -46 -20 -57 0 -11 -7 -23 -15 -26 -8 -4 -15 -11 -15 -18
0 -22 -44 -95 -60 -99 -10 -2 -22 -24 -29 -50 -7 -25 -19 -48 -27 -51 -8 -3
-14 -13 -14 -22 0 -9 -6 -30 -14 -47 -7 -18 -18 -60 -23 -94 l-9 -63 533 0
533 0 0 153 0 153 -82 -2 c-46 -1 -105 -7 -133 -14 -27 -6 -96 -13 -152 -15
-56 -2 -107 -6 -112 -9 -18 -12 -155 -25 -169 -17 -12 7 -12 10 -1 17 36 22
105 54 118 54 7 0 43 20 80 45 37 24 80 49 96 55 41 16 235 29 265 18 23 -9
23 -8 7 10 -9 10 -17 24 -17 31 0 8 -12 28 -27 45 -16 17 -64 91 -108 164
-102 170 -187 277 -256 325 -30 21 -120 65 -200 98 -219 92 -205 89 -294 83
-78 -6 -84 -5 -200 41 -66 26 -151 52 -190 57 -58 9 -79 17 -124 51 -29 23
-65 59 -78 81 -14 22 -44 60 -67 85 -23 25 -55 67 -69 93 -15 26 -50 67 -77
90 -28 24 -50 49 -50 57 0 7 24 59 54 115 52 97 87 207 111 353 3 22 16 49 27
60 50 45 62 116 58 355 -1 32 6 96 16 142 19 98 14 143 -21 176 -24 22 -25 30
-25 119 1 88 33 330 61 457 15 67 6 114 -37 191 -19 35 -31 68 -28 77 3 9 1
16 -5 16 -18 0 -54 83 -53 122 1 20 -2 40 -8 43 -5 3 -12 25 -15 50 -4 24 -13
46 -21 49 -10 4 -12 14 -8 30 5 22 0 27 -55 51 -42 19 -61 33 -63 48 -3 24
-61 41 -88 27 -21 -11 -50 6 -50 31 0 11 -8 31 -17 46 -16 23 -17 24 -24 7 -7
-17 -8 -17 -8 -1 -1 9 -7 17 -15 17 -13 0 -46 51 -46 72 0 8 19 5 59 -10 29
-11 -1 19 -37 37 -24 12 -51 17 -78 15 -33 -3 -45 1 -64 21 -26 28 -66 32
-120 13 -26 -9 -35 -9 -38 0 -6 19 -17 14 -40 -18z m192 -11 c2 -2 6 -13 10
-25 5 -16 -2 -26 -31 -47 -37 -26 -59 -27 -49 -1 6 17 -6 18 -21 3 -9 -9 -16
-8 -27 4 -20 20 -20 22 7 53 19 22 28 25 65 21 24 -3 44 -6 46 -8z m-744 -319
c0 -13 -38 -32 -50 -25 -15 10 -12 23 8 28 30 8 42 7 42 -3z m799 -444 c28 6
118 -33 141 -61 7 -8 21 -15 31 -15 11 0 19 -5 19 -10 0 -6 11 -8 25 -4 19 5
25 2 25 -10 0 -9 -6 -16 -12 -16 -7 0 2 -12 20 -26 17 -14 32 -31 32 -38 0 -7
8 -28 17 -47 10 -19 18 -60 19 -95 1 -33 7 -77 13 -99 10 -39 8 -205 -3 -224
-4 -6 -24 -4 -59 6 -62 19 -210 21 -232 3 -8 -7 -24 -10 -35 -7 -15 4 -28 -5
-50 -32 -23 -28 -45 -42 -90 -55 -81 -24 -126 -16 -181 35 -23 21 -50 39 -60
39 -10 0 -20 4 -23 9 -6 9 -95 26 -111 21 -5 -2 -32 -4 -60 -4 -27 -1 -57 -6
-65 -11 -8 -5 -30 -15 -47 -21 -54 -19 -58 -6 -59 200 -1 163 1 185 19 224 11
23 26 42 34 42 7 0 13 6 13 14 0 8 9 18 20 21 11 3 20 11 20 16 0 5 8 9 18 9
11 0 29 9 42 20 24 20 34 24 60 20 8 -1 31 3 52 9 21 6 57 16 81 23 23 7 60
20 83 30 22 9 49 15 61 12 12 -3 27 1 37 11 13 14 29 16 69 12 28 -2 53 -10
55 -16 6 -18 20 -13 27 10 5 15 10 18 17 11 6 -6 23 -9 37 -6z m176 -746 c4
-6 -7 -10 -25 -10 -18 0 -29 4 -25 10 3 6 15 10 25 10 10 0 22 -4 25 -10z
m-715 -30 c0 -5 -15 -10 -32 -9 -31 1 -32 1 -8 9 35 11 40 11 40 0z m606 -78
c-4 -3 -11 -1 -17 5 -8 8 -7 18 3 34 l13 24 3 -28 c2 -16 1 -31 -2 -35z m-504
6 c-15 -15 -26 -4 -18 18 5 13 9 15 18 6 9 -9 9 -15 0 -24z m269 -38 c6 -16
15 -27 20 -24 8 4 14 -66 10 -103 -1 -6 3 -14 9 -18 5 -3 10 -17 10 -31 0 -13
5 -24 10 -24 6 0 10 -5 10 -11 0 -6 12 -26 26 -44 29 -39 27 -47 -16 -65 -16
-7 -30 -20 -30 -29 0 -9 -9 -22 -21 -29 -17 -11 -25 -11 -45 3 -13 8 -24 20
-24 25 0 5 -13 23 -30 38 -33 32 -37 47 -16 59 18 10 22 109 8 166 -21 79 54
160 79 87z m-556 -53 c11 -37 15 -107 6 -107 -19 0 -41 46 -44 93 -2 41 -1 44
16 36 10 -6 20 -16 22 -22z m386 -40 l-21 -32 0 29 c0 35 33 79 38 52 2 -9 -6
-31 -17 -49z m769 -47 c0 -16 -9 -37 -19 -47 -17 -16 -18 -24 -10 -71 16 -85
9 -121 -26 -140 -16 -9 -32 -21 -34 -26 -2 -4 -12 -15 -22 -24 -10 -9 -16 -19
-13 -24 3 -4 7 -30 9 -58 2 -38 -1 -52 -13 -59 -14 -8 -14 -10 1 -26 21 -20
22 -35 2 -35 -9 0 -15 -9 -15 -24 0 -14 -6 -31 -12 -38 -7 -7 -15 -29 -16 -48
-2 -19 -7 -37 -11 -40 -4 -3 -10 -13 -14 -22 -8 -21 -53 -24 -70 -5 -22 23
-49 85 -43 96 4 6 3 11 -2 11 -6 0 3 25 18 56 16 30 30 60 32 65 2 7 12 7 30
0 22 -8 27 -7 31 11 7 25 -2 76 -14 84 -5 3 -9 14 -9 24 0 10 -6 23 -13 27
-22 13 -66 78 -78 114 -7 19 -21 46 -31 61 -11 16 -17 32 -13 38 3 5 48 9 101
9 76 -1 99 2 114 16 17 16 18 15 23 -2 3 -15 6 -13 15 10 12 28 28 35 34 16 3
-8 10 -8 26 2 26 16 30 34 5 25 -16 -6 -16 -6 0 12 9 10 17 24 17 30 0 7 5 12
10 12 6 0 10 -13 10 -30z m-125 10 c3 -5 2 -10 -4 -10 -5 0 -13 5 -16 10 -3 6
-2 10 4 10 5 0 13 -4 16 -10z m-1108 -32 c-3 -7 -5 -2 -5 12 0 14 2 19 5 13 2
-7 2 -19 0 -25z m66 -54 c26 -9 47 -22 47 -29 0 -15 38 -27 54 -17 6 3 57 7
113 9 l103 2 0 -24 c0 -28 -9 -31 -29 -12 -9 8 -12 8 -7 0 4 -7 -2 -13 -16
-15 -13 -2 -23 -10 -24 -18 -1 -20 -14 -51 -29 -70 -6 -8 -20 -35 -30 -60 -10
-25 -22 -49 -25 -53 -7 -9 -60 12 -60 23 0 4 -11 19 -26 35 -14 15 -38 55 -54
89 -16 34 -39 72 -50 84 -11 12 -17 22 -13 22 4 0 2 5 -5 12 -14 14 -16 38 -4
38 5 0 29 -7 55 -16z m-170 -154 c3 -11 1 -22 -3 -25 -12 -7 -33 32 -25 45 9
14 21 5 28 -20z m504 -35 c-8 -20 -47 -7 -47 17 0 10 5 16 10 13 6 -3 10 2 10
12 0 15 2 14 16 -5 9 -13 13 -29 11 -37z m-499 -28 c4 -21 -8 -26 -37 -16 -18
7 -21 12 -12 23 15 18 45 14 49 -7z m682 -28 c0 -6 -4 -7 -10 -4 -5 3 -10 11
-10 16 0 6 5 7 10 4 6 -3 10 -11 10 -16z m-269 -40 c-9 -22 -10 -22 -10 -3 -1
11 2 24 6 27 12 12 14 0 4 -24z m-441 11 c0 -5 -5 -10 -11 -10 -5 0 -7 5 -4
10 3 6 8 10 11 10 2 0 4 -4 4 -10z m742 -59 c20 -1 46 2 57 8 15 8 32 8 66 -1
52 -14 59 -28 14 -28 -18 0 -60 -5 -95 -12 -95 -17 -234 18 -146 38 15 3 32 7
37 9 6 1 15 -1 20 -4 6 -4 27 -8 47 -10z m-202 -21 c0 -5 -5 -10 -11 -10 -5 0
-7 5 -4 10 3 6 8 10 11 10 2 0 4 -4 4 -10z m37 -6 c-3 -3 -12 -4 -19 -1 -8 3
-5 6 6 6 11 1 17 -2 13 -5z m-357 -28 c0 -3 -4 -8 -10 -11 -5 -3 -10 -1 -10 4
0 6 5 11 10 11 6 0 10 -2 10 -4z m119 -41 c27 -54 36 -57 28 -10 -4 26 -2 35
8 35 7 0 16 6 19 13 3 6 4 3 1 -9 -4 -15 7 -33 40 -66 25 -25 45 -53 45 -62 0
-9 7 -16 15 -16 8 0 15 -5 15 -11 0 -6 -7 -9 -15 -5 -8 3 -15 1 -15 -5 0 -19
-43 -47 -60 -39 -8 5 -23 11 -32 14 -38 11 -113 206 -80 206 5 0 19 -20 31
-45z m304 -2 c4 -3 26 -7 50 -7 38 -1 42 -3 42 -26 0 -21 -5 -26 -31 -28 -25
-2 -33 1 -37 19 -6 22 -7 22 -26 5 -19 -17 -20 -17 -31 3 -6 12 -8 26 -5 31 7
11 28 13 38 3z m185 -32 c-2 -21 -9 -27 -34 -29 -25 -2 -33 1 -37 18 -7 28 16
49 48 42 21 -4 26 -9 23 -31z m55 24 c8 -18 -11 -31 -25 -17 -11 11 -3 32 12
32 4 0 10 -7 13 -15z m62 5 c3 -5 1 -10 -4 -10 -6 0 -11 5 -11 10 0 6 2 10 4
10 3 0 8 -4 11 -10z m-365 -15 c0 -8 -7 -15 -15 -15 -8 0 -15 7 -15 15 0 8 7
15 15 15 8 0 15 -7 15 -15z m375 -155 c-4 -6 -4 -18 -1 -27 6 -14 8 -14 22 3
15 18 15 18 11 -2 -4 -17 -1 -20 14 -17 31 8 52 -4 41 -24 -17 -29 -152 -59
-152 -33 0 16 -22 12 -36 -7 -12 -17 -13 -16 -14 5 0 27 46 92 66 92 8 0 14 5
14 10 0 6 9 10 21 10 11 0 17 -4 14 -10z m-360 -30 c3 -5 1 -10 -4 -10 -6 0
-11 5 -11 10 0 6 2 10 4 10 3 0 8 -4 11 -10z m108 -27 c18 3 44 -1 57 -8 13
-7 29 -11 36 -8 7 2 17 -5 24 -16 12 -23 11 -23 -40 -25 -25 -1 -38 -7 -44
-22 -9 -19 -12 -20 -59 -7 -28 7 -57 19 -66 27 -9 7 -29 17 -44 22 l-29 10 36
14 c20 7 36 17 36 21 0 5 14 3 31 -3 17 -6 45 -8 62 -5z m-93 -70 c0 -5 -7
-17 -15 -27 -11 -15 -18 -17 -27 -8 -8 8 -8 15 2 27 13 15 40 21 40 8z m235
-123 c-6 -26 -4 -30 15 -30 12 0 19 -4 16 -9 -7 -11 -46 -2 -46 10 0 5 -4 9
-10 9 -5 0 -10 -6 -10 -14 0 -23 -34 -76 -48 -76 -12 0 -82 63 -82 74 0 2 16
14 36 26 28 18 44 21 80 16 35 -4 44 -3 44 9 0 8 3 15 6 15 3 0 3 -13 -1 -30z
m-257 -512 c9 -23 15 -29 21 -20 12 19 29 -6 26 -38 -1 -19 -7 -24 -23 -22
-12 2 -22 -2 -22 -8 0 -6 -4 -9 -9 -5 -5 3 -13 30 -16 60 -5 34 -11 52 -18 48
-6 -3 -7 -1 -3 5 13 21 31 13 44 -20z m382 -122 c0 -8 -5 -18 -11 -21 -6 -4
-8 -14 -4 -22 4 -13 -1 -15 -30 -10 -19 3 -35 2 -35 -4 0 -5 5 -9 10 -9 6 0
10 -6 10 -12 -1 -7 -10 -2 -20 11 -19 22 -19 24 -3 36 13 10 22 10 30 3 10 -8
13 -6 13 4 0 15 19 38 32 38 4 0 8 -6 8 -14z m-362 -152 c14 -4 21 -12 18 -20
-4 -11 1 -13 22 -7 46 12 85 5 111 -21 22 -23 23 -28 12 -50 -9 -17 -11 -41
-7 -78 6 -50 5 -55 -16 -66 -42 -21 -53 -17 -110 31 -30 26 -60 47 -67 47 -6
0 -11 11 -11 25 0 14 -3 25 -8 25 -12 0 -30 68 -24 95 5 26 30 32 80 19z
m1238 -53 c-8 -12 -36 -4 -36 11 0 5 5 6 10 3 6 -3 10 -1 10 6 0 10 3 10 11 2
6 -6 8 -16 5 -22z m140 3 c-4 -10 1 -22 11 -30 12 -9 14 -13 5 -14 -20 0 -45
29 -38 45 3 8 10 15 17 15 6 0 8 -7 5 -16z m-2126 -100 c0 -8 -5 -12 -10 -9
-6 4 -8 11 -5 16 9 14 15 11 15 -7z m1060 -34 c0 -11 -4 -20 -10 -20 -5 0 -10
9 -10 20 0 11 5 20 10 20 6 0 10 -9 10 -20z m30 10 c0 -5 -4 -10 -10 -10 -5 0
-10 5 -10 10 0 6 5 10 10 10 6 0 10 -4 10 -10z m458 1 c11 -7 11 -9 -2 -14 -9
-4 -16 -15 -16 -25 0 -11 -7 -25 -15 -32 -13 -10 -15 -9 -15 8 0 23 20 72 29
72 3 0 12 -4 19 -9z m-498 -51 c0 -5 -2 -10 -4 -10 -3 0 -8 5 -11 10 -3 6 -1
10 4 10 6 0 11 -4 11 -10z m1470 -80 c0 -5 -5 -10 -11 -10 -5 0 -7 5 -4 10 3
6 8 10 11 10 2 0 4 -4 4 -10z m-2282 -21 c-19 -13 -28 -11 -28 5 0 9 7 12 21
9 16 -4 17 -8 7 -14z m2356 5 c11 -28 6 -39 -9 -20 -8 11 -16 18 -18 15 -14
-18 -44 -106 -39 -114 4 -5 8 -2 10 8 5 25 48 19 45 -6 0 -12 4 -16 13 -13 10
4 14 -2 14 -19 0 -16 -6 -25 -15 -25 -8 0 -15 -6 -15 -13 0 -8 -12 -24 -26
-38 l-25 -24 -19 25 c-11 14 -20 20 -20 13 0 -6 -12 -13 -27 -15 -20 -2 -27
-8 -25 -20 2 -10 -3 -18 -11 -18 -8 0 -20 -7 -27 -15 -15 -18 -30 -10 -30 17
0 11 8 22 19 25 11 3 21 17 25 36 11 52 65 157 82 157 8 0 12 5 9 10 -3 6 3
10 14 10 12 0 21 6 21 14 0 12 12 20 41 25 4 0 10 -6 13 -15z m-2794 -23 c0
-9 -4 -22 -9 -29 -12 -19 -32 8 -25 35 7 25 34 20 34 -6z m467 -37 c-12 -13
-37 6 -37 28 l0 22 22 -21 c12 -13 19 -25 15 -29z m156 -14 c-4 -13 1 -22 13
-26 36 -13 45 -25 32 -41 -10 -12 -9 -18 7 -30 11 -7 20 -19 21 -26 0 -7 4
-25 9 -40 4 -17 3 -38 -4 -53 -9 -20 -8 -31 3 -52 35 -68 43 -152 14 -152 -18
0 -80 54 -89 77 -15 39 -71 25 -73 -18 -1 -32 -32 -37 -40 -7 -17 65 17 123
72 123 24 0 27 4 34 49 4 27 12 54 17 59 17 17 13 43 -13 74 -12 15 -21 34
-19 41 3 6 0 12 -6 12 -18 0 -13 18 7 23 9 3 18 5 19 6 0 0 -1 -8 -4 -19z
m2210 -6 c-6 -17 -33 -19 -33 -1 0 7 9 13 19 14 14 1 18 -3 14 -13z m-2407
-31 c-11 -11 -17 4 -9 23 7 18 8 18 11 1 2 -10 1 -21 -2 -24z m1001 15 c-3 -8
-6 -5 -6 6 -1 11 2 17 5 13 3 -3 4 -12 1 -19z m-1540 -10 c-3 -8 -6 -5 -6 6
-1 11 2 17 5 13 3 -3 4 -12 1 -19z m1603 -13 c10 -12 10 -15 -4 -15 -9 0 -16
7 -16 15 0 8 2 15 4 15 2 0 9 -7 16 -15z m-1039 -41 c-25 -18 -29 -71 -6 -88
8 -6 18 -26 21 -43 6 -29 4 -33 -15 -33 -14 0 -21 -6 -21 -20 0 -11 -7 -20
-15 -20 -8 0 -15 9 -15 19 0 11 -14 28 -32 39 l-32 21 32 18 c30 17 32 21 27
58 -4 22 -8 48 -11 58 -4 13 1 17 19 17 14 0 28 -6 31 -12 3 -9 9 -7 17 7 9
14 14 16 17 6 2 -7 -5 -19 -17 -27z m1164 -6 c-7 -5 -17 -32 -20 -61 -6 -48
-11 -55 -41 -72 -19 -10 -37 -16 -40 -12 -11 10 7 65 27 83 10 9 19 20 19 24
0 4 12 21 28 38 17 19 29 26 34 19 4 -7 1 -15 -7 -19z m-1606 -66 c0 -24 -1
-25 -9 -7 -12 28 -12 47 0 40 6 -3 10 -18 9 -33z m1429 3 c-13 -29 -62 -57
-84 -48 -11 4 -10 10 8 29 13 13 31 24 41 24 9 0 17 5 17 10 0 6 7 10 15 10
12 0 13 -4 3 -25z m-1118 -46 c13 -9 13 -10 0 -6 -8 2 -23 0 -32 -5 -17 -8
-25 2 -11 15 9 10 26 8 43 -4z m-124 -59 c-1 -35 -16 -41 -16 -7 0 20 7 37 15
37 1 0 2 -13 1 -30z m853 -49 c1 -39 -13 -13 -15 27 -2 28 0 32 6 17 5 -11 9
-31 9 -44z m-912 17 c-3 -7 -5 -2 -5 12 0 14 2 19 5 13 2 -7 2 -19 0 -25z
m353 -23 c11 -13 10 -19 -4 -34 -10 -11 -26 -21 -37 -24 -16 -4 -19 0 -19 34
0 21 5 39 11 39 5 0 7 5 3 11 -10 16 29 -6 46 -26z m1087 -27 c-3 -7 -5 -2 -5
12 0 14 2 19 5 13 2 -7 2 -19 0 -25z m-1274 -43 c12 3 27 7 34 9 7 1 15 5 19
9 11 10 24 -2 24 -23 0 -23 -29 -33 -67 -24 -31 8 -55 33 -45 49 4 5 8 2 10
-8 3 -14 9 -17 25 -12z m767 -7 c0 -13 -23 -5 -28 10 -2 7 2 10 12 6 9 -3 16
-11 16 -16z m1789 -79 c1 -21 -5 -29 -26 -34 -16 -5 -32 -9 -38 -11 -53 -16
-90 -21 -113 -14 -15 5 -20 9 -11 9 21 1 49 43 49 72 0 14 5 19 15 16 8 -4 23
5 35 20 11 14 20 21 20 14 0 -6 11 -11 25 -11 19 0 25 5 26 23 2 27 18 -47 18
-84z m-1428 -10 c-10 -11 -20 -13 -26 -7 -7 6 -4 14 7 22 10 7 15 16 12 19 -3
3 -2 12 2 19 6 9 10 6 14 -12 4 -16 1 -31 -9 -41z m1243 16 c-20 -31 -22 -31
-16 0 2 14 11 25 18 25 12 0 11 -5 -2 -25z m-1967 -47 c-3 -8 -6 -5 -6 6 -1
11 2 17 5 13 3 -3 4 -12 1 -19z m253 2 c0 -5 -4 -10 -10 -10 -5 0 -10 5 -10
10 0 6 5 10 10 10 6 0 10 -4 10 -10z"/>
<path d="M3890 70 c0 -5 5 -10 11 -10 5 0 7 5 4 10 -3 6 -8 10 -11 10 -2 0 -4
-4 -4 -10z"/>
<path d="M3123 775 c-13 -27 -14 -38 -5 -47 18 -18 51 18 49 53 -3 39 -24 36
-44 -6z"/>
<path d="M3026 611 c-26 -5 -27 -7 -13 -20 20 -16 47 -8 47 14 0 8 -1 14 -2
14 -2 -1 -16 -4 -32 -8z"/>
<path d="M3478 528 c-3 -24 -1 -47 4 -53 13 -14 48 31 48 61 0 27 -20 33 -21
7 0 -14 -2 -13 -9 5 -13 31 -17 28 -22 -20z"/>
<path d="M1940 139 c0 -11 5 -17 10 -14 6 3 10 13 10 21 0 8 -4 14 -10 14 -5
0 -10 -9 -10 -21z"/>
</g>
</svg>
