<?xml version="1.0" standalone="no"?>
<!DOCTYPE svg PUBLIC "-//W3C//DTD SVG 20010904//EN"
 "http://www.w3.org/TR/2001/REC-SVG-20010904/DTD/svg10.dtd">
<svg version="1.0" xmlns="http://www.w3.org/2000/svg"
 width="700.000000pt" height="700.000000pt" viewBox="0 0 700.000000 700.000000"
 preserveAspectRatio="xMidYMid meet">
<metadata>
Created by potrace 1.14, written by Peter Selinger 2001-2017
</metadata>
<g transform="translate(0.000000,700.000000) scale(0.100000,-0.100000)"
fill="#000000" stroke="none">
<path d="M3328 6685 c-2 -2 -39 -6 -83 -9 -154 -11 -296 -32 -450 -67 -114
-25 -278 -74 -405 -121 -548 -203 -1029 -554 -1401 -1023 -150 -189 -315 -460
-403 -665 -50 -114 -54 -124 -80 -195 -64 -176 -112 -350 -151 -553 -7 -37
-23 -161 -30 -227 -12 -112 -13 -130 -14 -174 -1 -33 -4 -41 -14 -34 -6 6 -43
27 -82 48 -38 21 -97 53 -131 71 -33 19 -65 34 -69 34 -7 0 1 -294 9 -350 3
-14 7 -54 11 -90 12 -123 28 -224 61 -385 32 -154 28 -135 59 -245 157 -561
422 -1057 797 -1494 81 -95 314 -325 408 -402 299 -247 619 -438 955 -569 95
-37 278 -99 325 -110 135 -33 327 -74 369 -79 30 -4 64 -8 75 -11 23 -4 123
-15 201 -20 66 -5 399 -5 450 0 217 20 277 29 435 61 471 97 914 295 1310 587
154 113 266 211 425 371 293 295 525 622 709 1001 60 123 159 357 157 372 0 2
7 20 16 40 13 32 53 158 68 213 101 377 140 625 144 918 l2 184 -63 -35 c-35
-19 -102 -56 -150 -82 l-88 -47 -1 34 c-1 18 -2 47 -4 63 -9 112 -16 183 -19
205 -3 14 -7 43 -11 65 -34 230 -87 435 -169 655 -152 403 -388 777 -690 1089
-81 84 -228 219 -301 277 -27 21 -52 42 -55 45 -12 14 -233 161 -315 211 -84
50 -259 139 -365 186 -115 51 -370 138 -457 157 -10 2 -67 15 -128 29 -60 14
-159 32 -220 40 -60 8 -130 18 -155 22 -45 6 -476 14 -482 9z"/>
</g>
</svg>
