<?xml version="1.0" standalone="no"?>
<!DOCTYPE svg PUBLIC "-//W3C//DTD SVG 20010904//EN"
 "http://www.w3.org/TR/2001/REC-SVG-20010904/DTD/svg10.dtd">
<svg version="1.0" xmlns="http://www.w3.org/2000/svg"
 width="700.000000pt" height="700.000000pt" viewBox="0 0 700.000000 700.000000"
 preserveAspectRatio="xMidYMid meet">
<metadata>
Created by potrace 1.14, written by Peter Selinger 2001-2017
</metadata>
<g transform="translate(0.000000,700.000000) scale(0.100000,-0.100000)"
fill="#000000" stroke="none">
<path d="M1170 6985 c-401 -68 -748 -301 -968 -650 -70 -113 -139 -284 -179
-448 -16 -67 -18 -215 -21 -2337 -2 -1607 0 -2288 8 -2345 83 -607 559 -1092
1169 -1191 128 -21 4514 -21 4642 0 601 98 1067 564 1165 1165 21 128 21 4514
0 4642 -75 459 -370 853 -786 1048 -97 45 -201 81 -310 107 -71 17 -199 19
-2360 20 -1815 2 -2300 -1 -2360 -11z m3160 -1421 c241 -52 599 -142 901 -229
421 -121 1208 -389 1671 -570 15 -6 -11 -64 -174 -390 l-192 -382 -145 59
c-624 256 -1367 539 -1359 518 2 -4 102 -96 223 -204 121 -108 224 -202 229
-209 5 -9 -22 -55 -84 -142 -329 -463 -662 -1027 -926 -1570 -132 -272 -322
-687 -409 -892 l-69 -161 -48 41 c-167 146 -597 544 -597 554 -3 40 297 696
444 973 217 409 555 944 963 1523 57 81 103 149 101 151 -15 13 -799 243
-1050 308 l-127 33 165 255 c90 140 182 284 204 318 47 74 12 72 279 16z
m-935 -865 c-314 -446 -649 -1003 -1020 -1694 -159 -296 -519 -1013 -635
-1262 -88 -192 -95 -203 -124 -208 -40 -7 -1200 -145 -1218 -145 -24 0 -158
467 -222 775 -44 207 -103 592 -93 602 7 7 719 144 724 139 3 -2 20 -87 39
-188 33 -178 138 -619 154 -647 5 -10 13 -2 27 30 172 389 517 1087 726 1469
372 680 717 1234 1077 1728 l74 103 289 -289 289 -289 -87 -124z"/>
</g>
</svg>
