<?xml version="1.0" standalone="no"?>
<!DOCTYPE svg PUBLIC "-//W3C//DTD SVG 20010904//EN"
 "http://www.w3.org/TR/2001/REC-SVG-20010904/DTD/svg10.dtd">
<svg version="1.0" xmlns="http://www.w3.org/2000/svg"
 width="700.000000pt" height="700.000000pt" viewBox="0 0 700.000000 700.000000"
 preserveAspectRatio="xMidYMid meet">
<metadata>
Created by potrace 1.14, written by Peter Selinger 2001-2017
</metadata>
<g transform="translate(0.000000,700.000000) scale(0.100000,-0.100000)"
fill="#000000" stroke="none">
<path d="M3357 6994 c-1 -1 -51 -4 -111 -8 -60 -3 -118 -8 -130 -11 -11 -2
-43 -7 -71 -10 -27 -3 -61 -7 -75 -9 -14 -3 -41 -7 -60 -10 -113 -17 -288 -59
-445 -108 -433 -133 -853 -362 -1207 -656 -151 -125 -358 -335 -474 -481 -11
-13 -24 -28 -29 -35 -26 -28 -107 -139 -162 -221 -228 -343 -391 -708 -486
-1090 -32 -125 -59 -263 -73 -365 -3 -25 -8 -54 -10 -65 -26 -135 -25 -729 1
-860 2 -11 7 -40 10 -65 3 -25 7 -54 9 -65 5 -31 15 -86 21 -125 3 -19 10 -48
14 -65 11 -34 24 -110 20 -110 -1 0 3 -10 9 -21 6 -12 14 -34 16 -50 9 -49 84
-271 131 -386 37 -89 142 -312 175 -368 195 -340 346 -538 604 -795 189 -189
323 -298 536 -438 185 -122 179 -119 352 -207 348 -178 721 -294 1135 -355 75
-11 188 -13 483 -11 343 2 398 5 508 24 516 92 960 265 1380 538 62 41 118 78
125 84 6 5 59 47 117 93 148 116 159 126 311 277 240 239 404 453 573 749 42
73 76 134 76 136 0 1 22 49 49 106 66 139 141 329 166 419 2 8 15 53 29 100
47 162 65 245 112 535 3 22 8 202 9 400 3 361 0 420 -40 649 -15 85 -52 249
-76 331 -79 271 -221 607 -338 799 -23 36 -41 69 -41 72 0 2 -5 10 -10 17 -6
7 -36 50 -67 97 -244 373 -583 715 -964 971 -305 206 -659 369 -1017 468 -59
16 -118 32 -132 35 -14 2 -57 11 -96 20 -96 20 -328 53 -439 62 -79 6 -412 13
-418 8z"/>
</g>
</svg>
